<svg width="418" height="83" viewBox="0 0 418 83" fill="none" xmlns="http://www.w3.org/2000/svg">
<path d="M99.904 66H66.432V58.448L89.536 28.816H67.584V21.328H99.264V28.88L76.096 58.512H99.904V66ZM120.24 66.768C117.765 66.768 115.547 66.3627 113.584 65.552C111.664 64.6987 110.021 63.5253 108.656 62.032C107.333 60.496 106.309 58.6613 105.584 56.528C104.859 54.352 104.496 51.92 104.496 49.232C104.496 46.5867 104.837 44.1973 105.52 42.064C106.245 39.9307 107.269 38.1173 108.592 36.624C109.915 35.088 111.536 33.9147 113.456 33.104C115.376 32.2507 117.552 31.824 119.984 31.824C122.587 31.824 124.848 32.272 126.768 33.168C128.688 34.064 130.267 35.28 131.504 36.816C132.741 38.352 133.659 40.144 134.256 42.192C134.896 44.1973 135.216 46.352 135.216 48.656V51.344H113.008V52.176C113.008 54.608 113.691 56.5707 115.056 58.064C116.421 59.5147 118.448 60.24 121.136 60.24C123.184 60.24 124.848 59.8133 126.128 58.96C127.451 58.1067 128.624 57.0187 129.648 55.696L134.064 60.624C132.699 62.544 130.821 64.0587 128.432 65.168C126.085 66.2347 123.355 66.768 120.24 66.768ZM120.112 37.968C117.936 37.968 116.208 38.6933 114.928 40.144C113.648 41.5947 113.008 43.472 113.008 45.776V46.288H126.704V45.712C126.704 43.408 126.128 41.552 124.976 40.144C123.867 38.6933 122.245 37.968 120.112 37.968ZM142.424 66V32.592H150.616V39.504H150.936C151.149 38.608 151.469 37.7547 151.896 36.944C152.365 36.0907 152.962 35.344 153.688 34.704C154.413 34.064 155.266 33.552 156.248 33.168C157.272 32.784 158.445 32.592 159.768 32.592H161.56V40.336H159C156.226 40.336 154.136 40.7413 152.728 41.552C151.32 42.3627 150.616 43.6853 150.616 45.52V66H142.424ZM180.484 66.768C178.095 66.768 175.94 66.3627 174.02 65.552C172.143 64.7413 170.521 63.568 169.156 62.032C167.833 60.496 166.809 58.6613 166.084 56.528C165.359 54.352 164.996 51.92 164.996 49.232C164.996 46.544 165.359 44.1333 166.084 42C166.809 39.8667 167.833 38.0533 169.156 36.56C170.521 35.024 172.143 33.8507 174.02 33.04C175.94 32.2293 178.095 31.824 180.484 31.824C182.873 31.824 185.028 32.2293 186.948 33.04C188.868 33.8507 190.489 35.024 191.812 36.56C193.177 38.0533 194.223 39.8667 194.948 42C195.673 44.1333 196.036 46.544 196.036 49.232C196.036 51.92 195.673 54.352 194.948 56.528C194.223 58.6613 193.177 60.496 191.812 62.032C190.489 63.568 188.868 64.7413 186.948 65.552C185.028 66.3627 182.873 66.768 180.484 66.768ZM180.484 60.176C182.66 60.176 184.367 59.5147 185.604 58.192C186.841 56.8693 187.46 54.928 187.46 52.368V46.16C187.46 43.6427 186.841 41.7227 185.604 40.4C184.367 39.0773 182.66 38.416 180.484 38.416C178.351 38.416 176.665 39.0773 175.428 40.4C174.191 41.7227 173.572 43.6427 173.572 46.16V52.368C173.572 54.928 174.191 56.8693 175.428 58.192C176.665 59.5147 178.351 60.176 180.484 60.176ZM218.936 66V21.328H227.384V58.512H244.984V66H218.936ZM276.562 66C274.77 66 273.341 65.488 272.274 64.464C271.25 63.3973 270.61 61.9893 270.354 60.24H269.97C269.415 62.416 268.285 64.0587 266.578 65.168C264.871 66.2347 262.759 66.768 260.242 66.768C256.829 66.768 254.205 65.872 252.37 64.08C250.535 62.288 249.618 59.8987 249.618 56.912C249.618 53.456 250.855 50.896 253.33 49.232C255.805 47.5253 259.325 46.672 263.89 46.672H269.586V44.24C269.586 42.3627 269.095 40.912 268.114 39.888C267.133 38.864 265.554 38.352 263.378 38.352C261.458 38.352 259.901 38.7787 258.706 39.632C257.554 40.4427 256.573 41.424 255.762 42.576L250.898 38.224C252.135 36.304 253.778 34.768 255.826 33.616C257.874 32.4213 260.583 31.824 263.954 31.824C268.477 31.824 271.911 32.848 274.258 34.896C276.605 36.944 277.778 39.888 277.778 43.728V59.472H281.106V66H276.562ZM262.994 60.816C264.829 60.816 266.386 60.4107 267.666 59.6C268.946 58.7893 269.586 57.5947 269.586 56.016V51.6H264.338C260.071 51.6 257.938 52.9653 257.938 55.696V56.784C257.938 58.1493 258.365 59.1733 259.218 59.856C260.114 60.496 261.373 60.816 262.994 60.816ZM287.736 18.64H295.928V38.096H296.184C296.781 36.176 297.912 34.6613 299.576 33.552C301.24 32.4 303.181 31.824 305.4 31.824C309.667 31.824 312.909 33.3387 315.128 36.368C317.389 39.3547 318.52 43.6427 318.52 49.232C318.52 54.864 317.389 59.1947 315.128 62.224C312.909 65.2533 309.667 66.768 305.4 66.768C303.181 66.768 301.24 66.192 299.576 65.04C297.955 63.888 296.824 62.352 296.184 60.432H295.928V66H287.736V18.64ZM302.776 59.984C304.909 59.984 306.637 59.28 307.96 57.872C309.283 56.464 309.944 54.5653 309.944 52.176V46.416C309.944 44.0267 309.283 42.128 307.96 40.72C306.637 39.2693 304.909 38.544 302.776 38.544C300.813 38.544 299.171 39.0347 297.848 40.016C296.568 40.9973 295.928 42.2987 295.928 43.92V54.544C295.928 56.2933 296.568 57.6373 297.848 58.576C299.171 59.5147 300.813 59.984 302.776 59.984ZM337.055 66.768C333.855 66.768 331.167 66.2347 328.991 65.168C326.815 64.0587 324.895 62.544 323.231 60.624L328.223 55.76C329.46 57.168 330.804 58.2773 332.255 59.088C333.748 59.8987 335.455 60.304 337.375 60.304C339.338 60.304 340.746 59.9627 341.599 59.28C342.495 58.5973 342.943 57.6587 342.943 56.464C342.943 55.4827 342.623 54.7147 341.983 54.16C341.386 53.5627 340.34 53.1573 338.847 52.944L335.519 52.496C331.892 52.0267 329.119 51.0027 327.199 49.424C325.322 47.8027 324.383 45.456 324.383 42.384C324.383 40.7627 324.682 39.312 325.279 38.032C325.876 36.7093 326.73 35.6 327.839 34.704C328.948 33.7653 330.271 33.0613 331.807 32.592C333.386 32.08 335.135 31.824 337.055 31.824C338.676 31.824 340.106 31.952 341.343 32.208C342.623 32.4213 343.775 32.7627 344.799 33.232C345.823 33.6587 346.762 34.2133 347.615 34.896C348.468 35.536 349.3 36.2613 350.111 37.072L345.311 41.872C344.33 40.848 343.156 39.9947 341.791 39.312C340.426 38.6293 338.932 38.288 337.311 38.288C335.519 38.288 334.218 38.608 333.407 39.248C332.639 39.888 332.255 40.72 332.255 41.744C332.255 42.8533 332.575 43.7067 333.215 44.304C333.898 44.8587 335.028 45.264 336.607 45.52L339.999 45.968C347.21 46.992 350.815 50.2773 350.815 55.824C350.815 57.4453 350.474 58.9387 349.791 60.304C349.151 61.6267 348.234 62.7787 347.039 63.76C345.844 64.6987 344.394 65.4453 342.687 66C341.023 66.512 339.146 66.768 337.055 66.768Z" fill="#0B1F3B"/>
</svg>
